<svg width="1200" height="900" viewBox="0 0 1200 900" fill="none" xmlns="http://www.w3.org/2000/svg">
  <rect width="1200" height="900" fill="transparent"/>
  <g stroke="#A5B233" stroke-width="12" stroke-linecap="round" stroke-linejoin="round" opacity="0.22">
    <path d="M-40 110 L120 40 L210 130 L305 20 L420 95 L515 15"/>
    <path d="M-30 280 L150 190 L245 290 L330 170 L470 240 L560 160 L650 240"/>
    <path d="M40 430 L180 330 L260 420 L360 360 L470 450 L620 360"/>
    <path d="M-20 620 L140 520 L250 610 L370 500 L480 590 L630 500 L760 590"/>
    <path d="M70 820 L190 710 L320 800 L430 690 L560 780 L700 700"/>
    <path d="M760 -40 L660 90 L760 180 L690 290 L810 370 L730 490 L860 610"/>
    <path d="M980 -30 L860 110 L940 200 L840 340 L980 450 L900 560 L1040 700"/>
    <path d="M1210 120 L1040 210 L1110 330 L1000 430 L1130 560 L1020 700"/>
    <path d="M1180 360 L1040 440 L1140 560 L1030 660 L1150 790"/>
    <path d="M260 120 L340 240 L500 260 L600 170 L760 210 L860 120"/>
    <path d="M220 520 L360 600 L510 560 L640 660 L790 620 L930 700"/>
    <path d="M480 20 L410 140 L520 250 L430 340 L540 420"/>
    <path d="M120 620 L230 700 L360 680 L450 760 L590 740"/>
    <path d="M870 260 L760 320 L840 430 L730 500 L820 620"/>
    <path d="M600 760 L700 820 L840 790 L930 850 L1060 810"/>
  </g>
</svg>
